<?xml version="1.0" encoding="utf-8"?>
<!-- Generator: Adobe Illustrator 21.0.0, SVG Export Plug-In . SVG Version: 6.00 Build 0)  -->
<svg version="1.1" id="Layer_1" xmlns="http://www.w3.org/2000/svg" xmlns:xlink="http://www.w3.org/1999/xlink" x="0px" y="0px"
	 viewBox="0 0 200 75" style="enable-background:new 0 0 200 75;" xml:space="preserve">
<style type="text/css">
	.st0{fill:none;stroke:#BBBDBF;stroke-width:5.669300e-02;stroke-miterlimit:10;}
	.st1{fill:#231F20;}
	.st2{fill:#FFFFFF;}
</style>
<g>
	<rect x="-13.8" y="2.3" class="st0" width="222.8" height="72.6"/>
	<line class="st0" x1="-13.9" y1="6.3" x2="208.9" y2="6.3"/>
	<line class="st0" x1="-13.9" y1="10.6" x2="208.9" y2="10.6"/>
	<line class="st0" x1="-13.9" y1="14.6" x2="208.9" y2="14.6"/>
	<line class="st0" x1="-13.9" y1="18.8" x2="208.9" y2="18.8"/>
	<line class="st0" x1="-13.9" y1="23.6" x2="208.9" y2="23.6"/>
	<line class="st0" x1="-13.9" y1="27.9" x2="208.9" y2="27.9"/>
	<line class="st0" x1="-13.9" y1="31.9" x2="208.9" y2="31.9"/>
	<line class="st0" x1="-13.9" y1="36.1" x2="208.9" y2="36.1"/>
	<line class="st0" x1="-13.9" y1="40.7" x2="208.9" y2="40.7"/>
	<line class="st0" x1="-13.9" y1="45" x2="208.9" y2="45"/>
	<line class="st0" x1="-13.9" y1="49" x2="208.9" y2="49"/>
	<line class="st0" x1="-13.9" y1="53.2" x2="208.9" y2="53.2"/>
	<line class="st0" x1="-13.9" y1="58" x2="208.9" y2="58"/>
	<line class="st0" x1="-13.9" y1="62.3" x2="208.9" y2="62.3"/>
	<line class="st0" x1="-13.9" y1="66.3" x2="208.9" y2="66.3"/>
	<line class="st0" x1="-13.9" y1="70.5" x2="208.9" y2="70.5"/>
	<line class="st0" x1="-10" y1="2.2" x2="-10" y2="75"/>
	<line class="st0" x1="-6.4" y1="2.2" x2="-6.4" y2="75"/>
	<line class="st0" x1="-2.9" y1="2.2" x2="-2.9" y2="75"/>
	<line class="st0" x1="0.8" y1="2.2" x2="0.8" y2="75"/>
	<line class="st0" x1="4.3" y1="2.2" x2="4.3" y2="75"/>
	<line class="st0" x1="7.9" y1="2.2" x2="7.9" y2="75"/>
	<line class="st0" x1="11.4" y1="2.2" x2="11.4" y2="75"/>
	<line class="st0" x1="15" y1="2.2" x2="15" y2="75"/>
	<line class="st0" x1="18.7" y1="2.2" x2="18.7" y2="75"/>
	<line class="st0" x1="22.3" y1="2.2" x2="22.3" y2="75"/>
	<line class="st0" x1="25.8" y1="2.2" x2="25.8" y2="75"/>
	<line class="st0" x1="29.4" y1="2.2" x2="29.4" y2="75"/>
	<line class="st0" x1="32.9" y1="2.2" x2="32.9" y2="75"/>
	<line class="st0" x1="36.5" y1="2.2" x2="36.5" y2="75"/>
	<line class="st0" x1="40" y1="2.2" x2="40" y2="75"/>
	<line class="st0" x1="43.7" y1="2.2" x2="43.7" y2="75"/>
	<line class="st0" x1="47.4" y1="2.2" x2="47.4" y2="75"/>
	<line class="st0" x1="51" y1="2.2" x2="51" y2="75"/>
	<line class="st0" x1="54.5" y1="2.2" x2="54.5" y2="75"/>
	<line class="st0" x1="58.1" y1="2.2" x2="58.1" y2="75"/>
	<line class="st0" x1="61.6" y1="2.2" x2="61.6" y2="75"/>
	<line class="st0" x1="65.3" y1="2.2" x2="65.3" y2="75"/>
	<line class="st0" x1="68.8" y1="2.2" x2="68.8" y2="75"/>
	<line class="st0" x1="72.4" y1="2.2" x2="72.4" y2="75"/>
	<line class="st0" x1="76.2" y1="2.2" x2="76.2" y2="75"/>
	<line class="st0" x1="79.8" y1="2.2" x2="79.8" y2="75"/>
	<line class="st0" x1="83.3" y1="2.2" x2="83.3" y2="75"/>
	<line class="st0" x1="87" y1="2.2" x2="87" y2="75"/>
	<line class="st0" x1="90.5" y1="2.2" x2="90.5" y2="75"/>
	<line class="st0" x1="94.1" y1="2.2" x2="94.1" y2="75"/>
	<line class="st0" x1="97.6" y1="2.2" x2="97.6" y2="75"/>
	<line class="st0" x1="101.2" y1="2.2" x2="101.2" y2="75"/>
	<line class="st0" x1="105.3" y1="2.2" x2="105.3" y2="75"/>
	<line class="st0" x1="108.8" y1="2.2" x2="108.8" y2="75"/>
	<line class="st0" x1="112.4" y1="2.2" x2="112.4" y2="75"/>
	<line class="st0" x1="115.9" y1="2.2" x2="115.9" y2="75"/>
	<line class="st0" x1="119.5" y1="2.2" x2="119.5" y2="75"/>
	<line class="st0" x1="123.2" y1="2.2" x2="123.2" y2="75"/>
	<line class="st0" x1="126.8" y1="2.2" x2="126.8" y2="75"/>
	<line class="st0" x1="130.3" y1="2.2" x2="130.3" y2="75"/>
	<line class="st0" x1="133.9" y1="2.2" x2="133.9" y2="75"/>
	<line class="st0" x1="137.4" y1="2.2" x2="137.4" y2="75"/>
	<line class="st0" x1="141" y1="2.2" x2="141" y2="75"/>
	<line class="st0" x1="144.5" y1="2.2" x2="144.5" y2="75"/>
	<line class="st0" x1="148.2" y1="2.2" x2="148.2" y2="75"/>
	<line class="st0" x1="151.9" y1="2.2" x2="151.9" y2="75"/>
	<line class="st0" x1="155.5" y1="2.2" x2="155.5" y2="75"/>
	<line class="st0" x1="159" y1="2.2" x2="159" y2="75"/>
	<line class="st0" x1="162.6" y1="2.2" x2="162.6" y2="75"/>
	<line class="st0" x1="166.1" y1="2.2" x2="166.1" y2="75"/>
	<line class="st0" x1="169.8" y1="2.2" x2="169.8" y2="75"/>
	<line class="st0" x1="173.3" y1="2.2" x2="173.3" y2="75"/>
	<line class="st0" x1="176.9" y1="2.2" x2="176.9" y2="75"/>
	<line class="st0" x1="180.7" y1="2.2" x2="180.7" y2="75"/>
	<line class="st0" x1="184.3" y1="2.2" x2="184.3" y2="75"/>
	<line class="st0" x1="187.8" y1="2.2" x2="187.8" y2="75"/>
	<line class="st0" x1="191.5" y1="2.2" x2="191.5" y2="75"/>
	<line class="st0" x1="195" y1="2.2" x2="195" y2="75"/>
	<line class="st0" x1="198.6" y1="2.2" x2="198.6" y2="75"/>
	<line class="st0" x1="202.1" y1="2.2" x2="202.1" y2="75"/>
	<line class="st0" x1="205.7" y1="2.2" x2="205.7" y2="75"/>
</g>
<path class="st1" d="M45.3,45.5c-0.1,0.3-0.2,0.5-0.4,0.7c-0.5,0.8-1.3,1.2-2.3,1.2c-0.3,0-0.7-0.1-1-0.2c-0.9-0.3-1.4-1.1-1.4-2.3
	c0-1.9,1.7-2.8,4.9-2.9v-1.3c0-0.3,0-0.5,0-0.7c-0.1-1-0.6-1.5-1.3-1.5c-0.2,0-0.4,0-0.5,0.1c-0.2,0.1-0.4,0.5-0.6,1.1
	c-0.1,0.2-0.1,0.3-0.1,0.4c-0.2,0.5-0.5,0.8-0.9,0.8c-0.1,0-0.2,0-0.3-0.1c-0.4-0.1-0.6-0.4-0.6-0.9c0-0.3,0.1-0.5,0.2-0.7
	c0.5-0.8,1.5-1.2,3.1-1.2c0.4,0,0.7,0,1,0.1c1.5,0.3,2.3,1.4,2.3,3.2v4.4c0,0.7,0.1,1,0.4,1c0.4,0,0.6-0.5,0.7-1.5l0.5,0
	c0,0.4-0.1,0.7-0.1,1c-0.2,0.8-0.8,1.2-1.7,1.2C46.1,47.4,45.5,46.8,45.3,45.5z M44,46.4c0.6-0.3,1-0.9,1.2-1.9v-1.9
	c-0.6,0-1.1,0.1-1.5,0.2c-0.9,0.3-1.3,0.9-1.3,1.8c0,0.1,0,0.1,0,0.2c0,1.1,0.4,1.7,1.1,1.7C43.7,46.5,43.8,46.5,44,46.4z"/>
<path class="st1" d="M53.8,46.7c0.2,0,0.2,0.2,0.2,0.5h-4.3v-0.5c0.2,0,0.4,0,0.6-0.1c0.4-0.1,0.6-0.5,0.6-1.1v-6.8h-1.2v-0.5h3.2
	L53,40c0.1-0.3,0.3-0.6,0.5-0.8c0.6-0.8,1.4-1.2,2.3-1.2c0.4,0,0.7,0.1,1,0.2c1,0.5,1.5,1.5,1.5,3.2v5.3h0.7c0.1,0,0.2,0,0.2,0
	c0.2,0,0.2,0.2,0.2,0.5h-4.3v-0.5c0.3,0,0.5,0,0.6-0.1c0.3-0.1,0.4-0.5,0.4-1v-4.5c0-0.3,0-0.6-0.1-0.8C56,39.4,55.6,39,54.9,39
	c-0.2,0-0.5,0.1-0.7,0.2c-0.7,0.4-1,1.2-1.1,2.3l0,5.2h0.6C53.7,46.7,53.8,46.7,53.8,46.7z"/>
<path class="st1" d="M67.2,45.2c0,0.1-0.1,0.2-0.2,0.4c-0.6,1.3-1.5,1.9-2.7,1.9c-0.7,0-1.3-0.2-1.9-0.7c-1-0.8-1.5-2.1-1.5-3.8
	c0-1.3,0.3-2.4,0.9-3.3c0.7-1.1,1.7-1.7,3-1.7c0.9,0,1.7,0.3,2.3,1v-4.8h-1.7v-0.5h3.8v13.1h0.9c0.1,0,0.2,0,0.2,0
	c0.2,0,0.2,0.2,0.2,0.5h-3.2L67.2,45.2z M63.3,44.2c0.3,1.5,0.8,2.3,1.8,2.3c0.3,0,0.6-0.1,0.9-0.3c0.8-0.6,1.2-1.9,1.2-3.9
	c0-0.7-0.1-1.3-0.2-1.8c-0.3-1.3-0.9-1.9-1.7-1.9c-0.3,0-0.6,0.1-0.8,0.3c-0.8,0.5-1.2,1.8-1.2,3.8C63.2,43.2,63.2,43.8,63.3,44.2z"
	/>
<path class="st1" d="M75.6,38.3h1.3v-2l2.1-0.4v2.4h2.6v0.5H79v6.3c0,0.1,0,0.3,0,0.4c0.1,0.8,0.4,1.2,0.9,1.2
	c0.6,0,1.1-0.6,1.3-1.9l0.5,0.1c-0.1,0.4-0.2,0.8-0.3,1.1c-0.4,0.9-1,1.3-2,1.3c-1.6-0.1-2.4-1.1-2.5-3.1v-5.4h-1.3V38.3z"/>
<path class="st1" d="M86.8,46.7c0.2,0,0.2,0.2,0.2,0.5h-4.4v-0.5c0.2,0,0.4,0,0.5,0c0.4-0.1,0.7-0.5,0.7-1.1V34.1h-1.2v-0.5H86V40
	c0.1-0.3,0.2-0.5,0.4-0.8c0.6-0.8,1.4-1.3,2.4-1.3c0.4,0,0.7,0.1,1,0.2c1,0.5,1.5,1.5,1.5,3.2v5.3H92c0.1,0,0.2,0,0.2,0
	c0.2,0,0.2,0.2,0.2,0.5h-4.2v-0.5c0.3,0,0.5,0,0.6-0.1c0.2-0.1,0.3-0.5,0.3-1v-4.4c0-0.3,0-0.6-0.1-0.8C89,39.5,88.5,39,87.8,39
	c-0.3,0-0.5,0.1-0.8,0.2c-0.7,0.5-1.1,1.3-1.1,2.6v4.9h0.6C86.6,46.7,86.7,46.7,86.8,46.7z"/>
<path class="st1" d="M101.1,45.7c-0.6,1.1-1.7,1.7-3.1,1.7c-0.8,0-1.6-0.2-2.3-0.6c-1.3-0.8-1.9-2.2-1.9-4.1c0-1.2,0.3-2.2,0.8-3
	c0.8-1.2,1.9-1.7,3.3-1.7c0.8,0,1.5,0.2,2.1,0.5c1,0.6,1.5,1.4,1.5,2.5c0,0.3-0.1,0.6-0.2,0.8c-0.4,0.6-1.5,0.9-3.4,0.9l-1.9,0
	c0,0,0,0,0,0c0.1,2.8,0.8,4.2,2.3,4.2c0.3,0,0.5,0,0.8-0.1c0.8-0.3,1.4-0.9,1.7-1.7l0.4,0.2C101.3,45.3,101.2,45.5,101.1,45.7z
	 M97.5,38.6c-0.9,0.3-1.4,1.5-1.4,3.4l1.4,0.1c0.5,0,0.9,0,1.2-0.1c0.4-0.2,0.6-0.6,0.6-1.2c0-0.2,0-0.5-0.1-0.7
	c-0.2-1-0.6-1.5-1.4-1.5C97.8,38.5,97.7,38.5,97.5,38.6z"/>
<path class="st1" d="M122.7,38.3h1.3v-2l2.1-0.4v2.4h2.6v0.5h-2.6v6.3c0,0.1,0,0.3,0,0.4c0.1,0.8,0.4,1.2,0.9,1.2
	c0.6,0,1.1-0.6,1.3-1.9l0.5,0.1c-0.1,0.4-0.2,0.8-0.3,1.1c-0.3,0.9-1,1.3-2,1.3c-1.6-0.1-2.4-1.1-2.5-3.1v-5.4h-1.3V38.3z"/>
<path class="st1" d="M132,50.5c0.6-0.3,1.2-1.2,1.8-3l-3.6-8.7h-0.8v-0.5h4.2v0.5h-1.2l2.3,6.1l2.2-6.1h-1.4v-0.5h2.9
	c0,0.1,0,0.2,0,0.3c0,0.2-0.2,0.3-0.5,0.3c-0.1,0-0.1,0-0.2,0c-0.2,0-0.3,0.3-0.5,0.6l-2.8,8c-0.3,0.7-0.5,1.3-0.8,1.8
	c-0.7,1.4-1.6,2-2.6,2c-0.4,0-0.7-0.1-1.1-0.3c-0.5-0.3-0.8-0.7-0.8-1.2c0-0.1,0-0.2,0-0.3c0.1-0.4,0.4-0.6,0.8-0.6
	c0.2,0,0.4,0.1,0.5,0.2c0.1,0.1,0.3,0.4,0.4,0.9c0.1,0.4,0.3,0.5,0.5,0.5C131.7,50.5,131.9,50.5,132,50.5z"/>
<path class="st1" d="M143.9,46.7c0.2,0,0.2,0.2,0.2,0.5h-4.9v-0.5c0.4,0,0.7,0,0.9-0.1c0.4-0.1,0.6-0.5,0.6-1.1V34.1h-1.4v-0.5h3.5
	v13.1h1C143.8,46.7,143.9,46.7,143.9,46.7z"/>
<path class="st1" d="M152.8,45.7c-0.6,1.1-1.7,1.7-3.1,1.7c-0.8,0-1.6-0.2-2.3-0.6c-1.3-0.8-1.9-2.2-1.9-4.1c0-1.2,0.3-2.2,0.8-3
	c0.8-1.2,1.9-1.7,3.3-1.7c0.8,0,1.5,0.2,2.1,0.5c1,0.6,1.5,1.4,1.5,2.5c0,0.3-0.1,0.6-0.2,0.8c-0.4,0.6-1.5,0.9-3.4,0.9l-1.9,0
	c0,0,0,0,0,0c0.1,2.8,0.8,4.2,2.3,4.2c0.3,0,0.5,0,0.8-0.1c0.8-0.3,1.4-0.9,1.7-1.7l0.5,0.2C153,45.3,152.9,45.5,152.8,45.7z
	 M149.3,38.6c-0.9,0.3-1.4,1.5-1.4,3.4l1.4,0.1c0.5,0,0.9,0,1.2-0.1c0.4-0.2,0.6-0.6,0.6-1.2c0-0.2,0-0.5-0.1-0.7
	c-0.1-1-0.6-1.5-1.4-1.5C149.5,38.5,149.4,38.5,149.3,38.6z"/>
<ellipse class="st1" cx="114.3" cy="40.7" rx="8.4" ry="9.3"/>
<path class="st2" d="M117.7,45.8c-0.8,0.9-2,1.3-3.5,1.3c-1.3,0-2.5-0.4-3.4-1.1c0,0.3,0,0.5,0,0.6c-0.1,0.2-0.3,0.3-0.6,0.3v-4.4
	h0.7c0,0.5,0.1,1,0.2,1.5c0.5,1.6,1.5,2.4,2.9,2.4c0.4,0,0.8-0.1,1.1-0.2c0.8-0.4,1.2-1,1.2-2c0-0.3-0.1-0.6-0.2-0.9
	c-0.3-0.6-0.9-1.2-2-1.8c-1.2-0.7-1.9-1-2.1-1.2c-1.2-0.8-1.8-1.8-1.8-3c0-0.8,0.3-1.5,0.8-2c0.8-0.9,1.9-1.3,3.3-1.3
	c1.1,0,2.2,0.3,3.2,0.8c0-0.1,0-0.2,0-0.3c0-0.3,0.3-0.4,0.6-0.4V38h-0.7c0-0.8-0.2-1.4-0.5-2c-0.5-0.8-1.3-1.2-2.3-1.2
	c-0.3,0-0.6,0.1-0.9,0.2c-0.7,0.3-1.1,0.9-1.1,1.7c0,0.3,0.1,0.6,0.2,0.9c0.3,0.6,0.9,1.2,2,1.8c1.2,0.6,1.8,1,2,1.1
	c1.2,0.8,1.8,1.8,1.8,3C118.5,44.4,118.3,45.2,117.7,45.8z"/>
</svg>
